#!OML:ASF H:\Dans Jumps\Project 1\Capture day 1\Session 1\subject.ASF
:FULLY-SPECIFIED
:DEGREES
121
root 0.278685 12.6541 -16.3798 26.4335 1.01804 -2.21384
lowerback 32.8838 0.716257 -1.54838
upperback 5.79601 0.8507 3.75951
thorax -10.6086 0.44714 4.52255
lowerneck -22.2116 1.46939 -0.167585
upperneck 9.03299 2.59717 -3.88769
head 6.37288 0.899186 -0.937291
rclavicle 2.78299e-015 2.52457e-014
rhumerus -60.7677 -14.9823 -63.3175
rradius 23.0318
rwrist 29.0309
rhand -17.4701 -23.3394
rfingers 7.12502
rthumb 8.78171 -53.1367
lclavicle 2.78299e-015 2.52457e-014
lhumerus -60.0961 3.43321 79.0512
lradius 14.5038
lwrist 9.50125
lhand -22.8904 -3.56919
lfingers 7.12502
lthumb 3.54896 26.381
rfemur -89.3691 -1.53684 23.2213
rtibia 97.5096
rfoot -33.0042 -15.4376
rtoes 3.20047
lfemur -89.0713 7.15834 -21.4033
ltibia 97.4545
lfoot -30.7621 16.8827
ltoes -6.12777
122
root 0.275288 12.669 -16.3508 26.6164 1.07548 -2.18637
lowerback 33.1085 0.717411 -1.54917
upperback 5.67523 0.85698 3.77181
thorax -10.8343 0.455064 4.53572
lowerneck -22.3723 1.45048 -0.179156
upperneck 9.03 2.5802 -3.90819
head 6.39696 0.886787 -0.943702
rclavicle 1.39149e-015 3.47873e-014
rhumerus -59.7327 -15.2362 -63.282
rradius 22.5433
rwrist 29.7469
rhand -17.4988 -23.3726
rfingers 7.12502
rthumb 8.75398 -53.171
lclavicle 1.39149e-015 3.47873e-014
lhumerus -59.0261 3.81384 78.5302
lradius 14.109
lwrist 8.69369
lhand -22.6465 -3.63388
lfingers 7.12502
lthumb 3.78444 26.3123
rfemur -89.3442 -1.47152 23.1842
rtibia 97.4266
rfoot -33.0921 -15.6529
rtoes 3.26352
lfemur -89.0302 7.0436 -21.3486
ltibia 97.3367
lfoot -30.833 16.9709
ltoes -6.00335
123
root 0.272033 12.6895 -16.3176 26.8061 1.13183 -2.14178
lowerback 33.2785 0.71351 -1.56157
upperback 5.54875 0.853264 3.78365
thorax -11.0441 0.458959 4.55874
lowerneck -22.5386 1.43786 -0.186115
upperneck 9.05684 2.57542 -3.95404
head 6.43239 0.877507 -0.957689
rclavicle -5.1684e-015 -7.55382e-015
rhumerus -58.5845 -15.5435 -63.2208
rradius 22.0713
rwrist 30.4814
rhand -17.4406 -23.4027
rfingers 7.12502
rthumb 8.81018 -53.1988
lclavicle -5.1684e-015 -7.55382e-015
lhumerus -57.8217 4.28718 77.9484
lradius 13.6891
lwrist 7.80449
lhand -22.4241 -3.73266
lfingers 7.12502
lthumb 3.99923 26.2095
rfemur -89.275 -1.42343 23.1305
rtibia 97.3013
rfoot -33.1863 -15.8475
rtoes 3.33188
lfemur -88.9384 6.9202 -21.3052
ltibia 97.168
lfoot -30.9087 17.0531
ltoes -5.90708
124
root 0.269151 12.715 -16.2803 27.01 1.17498 -2.09291
lowerback 33.3836 0.710254 -1.58373
upperback 5.41574 0.847244 3.79564
thorax -11.2357 0.462286 4.5883
lowerneck -22.7161 1.43179 -0.190517
upperneck 9.1185 2.58292 -4.01712
head 6.48159 0.871834 -0.976266
rclavicle 6.95746e-015 2.26615e-014
rhumerus -57.3264 -15.891 -63.1596
rradius 21.6402
rwrist 31.1937
rhand -17.3506 -23.4076
rfingers 7.12502
rthumb 8.897 -53.2
lclavicle 6.95746e-015 2.26615e-014
lhumerus -56.4846 4.86732 77.3039
lradius 13.2455
lwrist 6.75335
lhand -22.2396 -3.85698
lfingers 7.12502
lthumb 4.17737 26.0818
rfemur -89.174 -1.37709 23.0664
rtibia 97.1316
rfoot -33.2791 -16.0165
rtoes 3.40667
lfemur -88.8124 6.80445 -21.2697
ltibia 96.9534
lfoot -30.9835 17.1319
ltoes -5.83879
125
root 0.266676 12.7453 -16.2389 27.2296 1.20257 -2.04211
lowerback 33.4206 0.710618 -1.61487
upperback 5.2744 0.842743 3.80646
thorax -11.4102 0.466823 4.62106
lowerneck -22.8954 1.43024 -0.193124
upperneck 9.20707 2.59811 -4.08594
head 6.54018 0.868795 -0.996134
rclavicle -6.55989e-015 -4.57205e-015
rhumerus -55.9662 -16.2594 -63.1314
rradius 21.2702
rwrist 31.8741
rhand -17.261 -23.3725
rfingers 7.12502
rthumb 8.98348 -53.1613
lclavicle -6.55989e-015 -4.57205e-015
lhumerus -55.0194 5.56096 76.5977
lradius 12.7849
lwrist 5.47588
lhand -22.0024 -3.97501
lfingers 7.12502
lthumb 4.40644 25.9591
rfemur -89.0426 -1.33059 22.9935
rtibia 96.9153
rfoot -33.3678 -16.159
rtoes 3.4735
lfemur -88.6545 6.69843 -21.2415
ltibia 96.6931
lfoot -31.0574 17.2097
ltoes -5.79829
126
root 0.264568 12.7807 -16.1933 27.4632 1.22001 -1.99657
lowerback 33.3921 0.712859 -1.64579
upperback 5.12384 0.840885 3.81677
thorax -11.5696 0.472809 4.6523
lowerneck -23.0708 1.42785 -0.207326
upperneck 9.3131 2.61372 -4.13633
head 6.60349 0.866834 -1.00814
rclavicle -5.1684e-015 7.15625e-015
rhumerus -54.5045 -16.6223 -63.1716
rradius 20.9752
rwrist 32.4975
rhand -17.2101 -23.3258
rfingers 7.12502
rthumb 9.03257 -53.1124
lclavicle -5.1684e-015 7.15625e-015
lhumerus -53.4399 6.3522 75.8705
lradius 12.3117
lwrist 3.90051
lhand -21.8794 -4.13446
lfingers 7.12502
lthumb 4.5252 25.7972
rfemur -88.8763 -1.28405 22.9224
rtibia 96.6479
rfoot -33.4505 -16.282
rtoes 3.5228
lfemur -88.4628 6.60174 -21.2116
ltibia 96.3861
lfoot -31.126 17.2928
ltoes -5.79242
127
root 0.262936 12.8216 -16.1437 27.706 1.23874 -1.95749
lowerback 33.3044 0.712105 -1.66382
upperback 4.96382 0.839756 3.82455
thorax -11.7159 0.478901 4.67368
lowerneck -23.2345 1.42213 -0.226779
upperneck 9.42718 2.62298 -4.16174
head 6.66698 0.863858 -1.01195
rclavicle 5.1684e-015 -5.76476e-015
rhumerus -52.9456 -16.9628 -63.3065
rradius 20.7645
rwrist 33.0544
rhand -17.2716 -23.2718
rfingers 7.12502
rthumb 8.97328 -53.0609
lclavicle 5.1684e-015 -5.76476e-015
lhumerus -51.7565 7.19399 75.1759
lradius 11.8581
lwrist 2.09496
lhand -21.8697 -4.30052
lfingers 7.12502
lthumb 4.53462 25.6309
rfemur -88.6669 -1.24748 22.861
rtibia 96.3269
rfoot -33.5289 -16.3921
rtoes 3.53508
lfemur -88.2299 6.50346 -21.1719
ltibia 96.0295
lfoot -31.1897 17.383
ltoes -5.80692
128
root 0.261821 12.8679 -16.09 27.958 1.2638 -1.92719
lowerback 33.1579 0.705675 -1.66078
upperback 4.7937 0.838675 3.82847
thorax -11.8497 0.484409 4.67957
lowerneck -23.387 1.41033 -0.255313
upperneck 9.54441 2.62191 -4.15477
head 6.72887 0.85864 -1.005
rclavicle 0 -6.36111e-015
rhumerus -51.2942 -17.2702 -63.5471
rradius 20.6464
rwrist 33.5483
rhand -17.4009 -23.246
rfingers 7.12502
rthumb 8.84853 -53.0405
lclavicle 0 -6.36111e-015
lhumerus -49.9801 8.03225 74.5764
lradius 11.4498
lwrist 0.162464
lhand -21.9969 -4.48427
lfingers 7.12502
lthumb 4.41181 25.4498
rfemur -88.4124 -1.2237 22.8143
rtibia 95.949
rfoot -33.6028 -16.492
rtoes 3.50394
lfemur -87.9554 6.39694 -21.1151
ltibia 95.6209
lfoot -31.2461 17.4809
ltoes -5.84609
129
root 0.261149 12.92 -16.0322 28.2108 1.29846 -1.90446
lowerback 32.9639 0.69243 -1.63332
upperback 4.61351 0.836923 3.82606
thorax -11.9747 0.488767 4.66576
lowerneck -23.5169 1.39475 -0.276019
upperneck 9.65261 2.61037 -4.13295
head 6.78386 0.850568 -0.995765
rclavicle -5.76476e-015 4.01545e-014
rhumerus -49.5641 -17.5336 -63.9012
rradius 20.6397
rwrist 33.9615
rhand -17.6003 -23.2763
rfingers 7.12502
rthumb 8.65603 -53.0789
lclavicle -5.76476e-015 4.01545e-014
lhumerus -48.115 8.75741 74.1679
lradius 11.1287
lwrist -1.65977
lhand -22.1412 -4.6171
lfingers 7.12502
lthumb 4.27244 25.3198
rfemur -88.1004 -1.21725 22.7849
rtibia 95.5123
rfoot -33.6759 -16.5826
rtoes 3.43178
lfemur -87.6251 6.27659 -21.0371
ltibia 95.1561
lfoot -31.2977 17.5878
ltoes -5.90496
130
root 0.260993 12.9784 -15.9703 28.4661 1.34166 -1.88567
lowerback 32.7198 0.67228 -1.58666
upperback 4.42693 0.832379 3.81761
thorax -12.0853 0.490966 4.63607
lowerneck -23.6299 1.37721 -0.289425
upperneck 9.74854 2.59163 -4.10155
head 6.83198 0.840715 -0.985466
rclavicle -1.39149e-015 -2.98177e-015
rhumerus -47.7542 -17.7363 -64.3758
rradius 20.761
rwrist 34.2537
rhand -17.8436 -23.4073
rfingers 7.12502
rthumb 8.42128 -53.2194
lclavicle -1.39149e-015 -2.98177e-015
lhumerus -46.1599 9.28068 74.0186
lradius 10.9349
lwrist -3.12026
lhand -22.4827 -4.76824
lfingers 7.12502
lthumb 3.94269 25.175
rfemur -87.73 -1.22779 22.7667
rtibia 95.0113
rfoot -33.7431 -16.6668
rtoes 3.30255
lfemur -87.2365 6.13626 -20.9398
ltibia 94.6293
lfoot -31.3395 17.7078
ltoes -5.98019
131
root 0.261045 13.0427 -15.9044 28.7136 1.39253 -1.8654
lowerback 32.433 0.648057 -1.52948
upperback 4.23775 0.825629 3.80515
thorax -12.1801 0.491466 4.59712
lowerneck -23.7173 1.36101 -0.289534
upperneck 9.82131 2.57074 -4.08016
head 6.86881 0.830204 -0.980899
rclavicle 8.34896e-015 7.95139e-016
rhumerus -45.8755 -17.8449 -64.9765
rradius 21.0369
rwrist 34.3701
rhand -18.1329 -23.6685
rfingers 7.12502
rthumb 8.14206 -53.4916
lclavicle 8.34896e-015 7.95139e-016
lhumerus -44.1194 9.52832 74.1599
lradius 10.9089
lwrist -3.99083
lhand -22.9342 -4.91966
lfingers 7.12502
lthumb 3.50669 25.0312
rfemur -87.2936 -1.25459 22.7527
rtibia 94.4471
rfoot -33.8007 -16.7414
rtoes 3.13398
lfemur -86.7796 5.97509 -20.8261
ltibia 94.0392
lfoot -31.3689 17.8341
ltoes -6.08059
132
root 0.261228 13.1134 -15.8343 28.9343 1.44295 -1.83735
lowerback 32.1157 0.624845 -1.47493
upperback 4.05272 0.818327 3.78932
thorax -12.2565 0.491333 4.55595
lowerneck -23.7941 1.34834 -0.272268
upperneck 9.88452 2.55141 -4.07655
head 6.9014 0.819766 -0.984797
rclavicle -1.94809e-014 -2.60408e-014
rhumerus -43.936 -17.8639 -65.6731
rradius 21.462
rwrist 34.2706
rhand -18.4505 -24.0021
rfingers 7.12502
rthumb 7.83552 -53.8369
lclavicle -1.94809e-014 -2.60408e-014
lhumerus -42.0046 9.43465 74.5998
lradius 11.0738
lwrist -4.10121
lhand -23.5427 -5.12128
lfingers 7.12502
lthumb 2.91896 24.8385
rfemur -86.7684 -1.29463 22.7312
rtibia 93.8178
rfoot -33.8411 -16.8104
rtoes 2.90497
lfemur -86.227 5.7966 -20.7021
ltibia 93.3821
lfoot -31.3926 17.9589
ltoes -6.20262
133
root 0.261325 13.1904 -15.76 29.1152 1.4818 -1.79819
lowerback 31.7723 0.610203 -1.44175
upperback 3.87885 0.813877 3.77308
thorax -12.3086 0.492758 4.52457
lowerneck -23.8674 1.33899 -0.249037
upperneck 9.94638 2.53601 -4.0821
head 6.93334 0.810658 -0.992205
rclavicle -2.38542e-015 -2.14687e-014
rhumerus -41.9414 -17.7696 -66.4538
rradius 22.03
rwrist 33.9073
rhand -18.7992 -24.3542
rfingers 7.12502
rthumb 7.49896 -54.2013
lclavicle -2.38542e-015 -2.14687e-014
lhumerus -39.8348 9.02994 75.2639
lradius 11.4553
lwrist -3.40994
lhand -24.0283 -5.25378
lfingers 7.12502
lthumb 2.45001 24.7119
rfemur -86.142 -1.33921 22.6923
rtibia 93.1218
rfoot -33.8447 -16.8808
rtoes 2.62283
lfemur -85.5629 5.61176 -20.5763
ltibia 92.6552
lfoot -31.4032 18.08
ltoes -6.37201
